HIERARCHY
ROOT Hips
{
	OFFSET 0.000000 0.000000 0.000000
	CHANNELS 6 Xposition Yposition Zposition Zrotation Yrotation Xrotation
	JOINT LHipJoint
	{
		OFFSET 0.000000 0.000000 0.000000
		CHANNELS 3 Zrotation Yrotation Xrotation
		JOINT LeftUpLeg
		{
			OFFSET 1.363060 -1.794630 0.839290
			CHANNELS 3 Zrotation Yrotation Xrotation
			JOINT LeftLeg
			{
				OFFSET 2.448110 -6.726130 0.000000
				CHANNELS 3 Zrotation Yrotation Xrotation
				JOINT LeftFoot
				{
					OFFSET 2.562200 -7.039590 0.000000
					CHANNELS 3 Zrotation Yrotation Xrotation
					JOINT LeftToeBase
					{
						OFFSET 0.157640 -0.433110 2.322550
						CHANNELS 3 Zrotation Yrotation Xrotation
						End Site
						{
							OFFSET 0.000000 0.000000 0.000000
						}
					}
				}
			}
		}
	}
	JOINT RHipJoint
	{
		OFFSET 0.000000 0.000000 0.000000
		CHANNELS 3 Zrotation Yrotation Xrotation
		JOINT RightUpLeg
		{
			OFFSET -1.305520 -1.794630 0.839290
			CHANNELS 3 Zrotation Yrotation Xrotation
			JOINT RightLeg
			{
				OFFSET -2.542530 -6.985550 0.000000
				CHANNELS 3 Zrotation Yrotation Xrotation
				JOINT RightFoot
				{
					OFFSET -2.568260 -7.056230 0.000000
					CHANNELS 3 Zrotation Yrotation Xrotation
					JOINT RightToeBase
					{
						OFFSET -0.164730 -0.452590 2.363150
						CHANNELS 3 Zrotation Yrotation Xrotation
						End Site
						{
							OFFSET 0.000000 0.000000 0.000000
						}
					}
				}
			}
		}
	}
	JOINT LowerBack
	{
		OFFSET 0.000000 0.000000 0.000000
		CHANNELS 3 Zrotation Yrotation Xrotation
		JOINT Spine
		{
			OFFSET 0.028270 2.035590 -0.193380
			CHANNELS 3 Zrotation Yrotation Xrotation
			JOINT Spine1
			{
				OFFSET 0.056720 2.048850 -0.042750
				CHANNELS 3 Zrotation Yrotation Xrotation
				JOINT Neck
				{
					OFFSET 0.000000 0.000000 0.000000
					CHANNELS 3 Zrotation Yrotation Xrotation
					JOINT Neck1
					{
						OFFSET -0.054170 1.746240 0.172020
						CHANNELS 3 Zrotation Yrotation Xrotation
						JOINT Head
						{
							OFFSET 0.104070 1.761360 -0.123970
							CHANNELS 3 Zrotation Yrotation Xrotation
							End Site
							{
								OFFSET 0.000000 0.000000 0.000000
							}
						}
					}
				}
				JOINT LeftShoulder
				{
					OFFSET 0.000000 0.000000 0.000000
					CHANNELS 3 Zrotation Yrotation Xrotation
					JOINT LeftArm
					{
						OFFSET 3.362410 1.200890 -0.311210
						CHANNELS 3 Zrotation Yrotation Xrotation
						JOINT LeftForeArm
						{
							OFFSET 4.983000 -0.000000 -0.000000
							CHANNELS 3 Zrotation Yrotation Xrotation
							JOINT LeftHand
							{
								OFFSET 3.483560 -0.000000 -0.000000
								CHANNELS 3 Zrotation Yrotation Xrotation
								JOINT LeftFingerBase
								{
									OFFSET 0.000000 0.000000 0.000000
									CHANNELS 3 Zrotation Yrotation Xrotation
									JOINT LeftHandIndex1
									{
										OFFSET 0.715260 -0.000000 -0.000000
										CHANNELS 3 Zrotation Yrotation Xrotation
										End Site
										{
											OFFSET 0.000000 0.000000 0.000000
										}
									}
								}
								JOINT LThumb
								{
									OFFSET 0.000000 0.000000 0.000000
									CHANNELS 3 Zrotation Yrotation Xrotation
									End Site
									{
										OFFSET 0.000000 0.000000 0.000000
									}
								}
							}
						}
					}
				}
				JOINT RightShoulder
				{
					OFFSET 0.000000 0.000000 0.000000
					CHANNELS 3 Zrotation Yrotation Xrotation
					JOINT RightArm
					{
						OFFSET -3.136600 1.374050 -0.404650
						CHANNELS 3 Zrotation Yrotation Xrotation
						JOINT RightForeArm
						{
							OFFSET -5.241900 -0.000000 -0.000000
							CHANNELS 3 Zrotation Yrotation Xrotation
							JOINT RightHand
							{
								OFFSET -3.444170 -0.000000 -0.000000
								CHANNELS 3 Zrotation Yrotation Xrotation
								JOINT RightFingerBase
								{
									OFFSET 0.000000 0.000000 0.000000
									CHANNELS 3 Zrotation Yrotation Xrotation
									JOINT RightHandIndex1
									{
										OFFSET -0.622530 -0.000000 -0.000000
										CHANNELS 3 Zrotation Yrotation Xrotation
										End Site
										{
											OFFSET 0.000000 0.000000 0.000000
										}
									}
								}
								JOINT RThumb
								{
									OFFSET 0.000000 0.000000 0.000000
									CHANNELS 3 Zrotation Yrotation Xrotation
									End Site
									{
										OFFSET 0.000000 0.000000 0.000000
									}
								}
							}
						}
					}
				}
			}
		}
	}
}
MOTION
Frames: 12
Frame Time: 0.008333
0.004217 -0.011474 0.123574 -0.122952 -0.235194 0.147968 -0.054852 -0.027497 -0.030580 0.302425 -0.175469 0.023561 -0.384939 -0.420347 -1.593443 -0.133144 0.605171 0.423729 0.028149 -0.364536 -1.005312 0.020405 -0.003334 0.005574 0.011674 -0.272466 0.514898 0.064089 0.171344 -0.470951 -0.040535 0.195482 0.036496 0.001107 0.039937 -0.109659 0.167323 0.085843 -0.121605 0.005112 0.104962 0.008536 -0.080574 0.058021 0.107303 0.026135 0.028775 -0.137408 0.000667 0.042624 -0.040101 0.000337 0.024251 0.006400 -0.001130 0.000176 0.000333 -0.013007 0.168394 0.139721 -0.139220 0.196910 0.090656 0.005252 -0.041431 0.153517 -0.053070 0.454404 0.080115 0.000000 0.000000 0.000000 -0.335425 0.467025 -0.277203 -0.009744 0.009778 0.002984 -0.137114 0.410595 0.307817 -0.165584 0.214838 -0.090085 -0.001268 0.029553 -0.237351 -0.008417 -0.194616 0.053987 -0.000000 0.000000 0.000000 0.001732 -0.223119 -0.044364
-0.171229 -0.288463 -1.593141 0.149101 -1.442041 -0.269166 -0.152561 -0.143061 -0.060266 0.541814 -0.390389 0.570827 -0.201556 -0.017939 -1.132166 -0.087812 0.645986 0.643700 0.087111 -0.199343 -0.618693 -0.259818 -0.110418 -0.318792 -0.820463 -1.501047 0.788186 -0.339203 -0.182095 -0.721816 -0.225569 -1.221123 -2.281919 -0.085069 -0.193166 -0.420267 0.040259 -0.026659 -0.403389 -0.074622 0.098930 -0.038735 -0.247447 0.087926 -0.043499 0.251260 -0.209966 0.091408 -0.119982 0.120745 -0.058813 -0.020763 -0.003442 -0.012241 -0.023851 -0.010383 -0.002144 0.269938 0.124491 0.354554 -0.403886 0.111493 0.096030 -0.039488 -0.032508 0.523971 0.422145 -0.394927 0.135534 -0.025230 0.000000 0.000000 -1.557421 -1.170993 -1.161882 -0.173315 -0.027258 -0.032741 -0.171373 0.181287 0.479138 -0.307083 -0.073338 -0.460149 -0.089539 0.025446 -0.535901 -1.645806 -0.976032 -1.231707 -0.011619 0.000000 0.000000 -1.602653 -1.670955 0.917976
-0.295843 -0.246886 -1.529669 -0.124195 -1.889002 -0.241696 -0.096354 -0.189070 -0.019080 0.573755 -0.559789 0.982946 0.044767 0.279759 -1.023332 -0.066755 0.743655 0.935280 0.154616 -0.043001 0.007435 -0.055062 -0.042561 -0.417157 -1.158321 -1.702817 2.333023 -0.547257 -0.617072 0.340196 0.003303 -1.477847 -2.455849 -0.046692 -0.235345 -0.707559 -0.013843 -0.010419 -0.147222 0.041344 0.268592 0.075131 -0.214020 0.172738 0.306941 0.458558 -0.420823 0.397095 0.051988 0.430761 0.062695 0.002462 0.070863 0.105196 0.116397 0.087386 0.024393 0.693770 0.061792 0.976747 -0.342105 0.269768 0.139717 -0.075270 -0.034952 1.216111 0.815389 -0.581527 -0.007332 -0.012791 0.000000 0.000000 -1.110913 0.005634 0.351693 -0.128859 0.014657 -0.016679 0.313638 0.336971 1.187249 -0.010133 -0.097846 -0.192252 -0.080136 0.074349 -0.417832 -0.721873 -0.477739 0.010523 0.033819 0.000000 0.000000 -0.366078 -1.302642 5.840402
-0.201222 0.193502 -0.238021 -0.034791 -1.654246 0.087605 0.033175 -0.231862 0.080453 0.357982 -0.761965 1.223337 0.171217 0.251642 -1.500572 -0.060129 0.529942 0.745439 0.155398 -0.011718 0.251748 -0.037063 -0.051067 -0.436403 -1.539188 -1.832577 3.438961 -1.116132 -1.134914 1.404899 0.204155 -1.487406 -2.457665 0.034633 -0.191368 -1.310709 -0.139366 -0.111720 -0.239049 0.015993 0.279158 -0.104066 -0.310364 0.198135 0.244931 0.158115 -0.843180 0.761762 0.071897 0.302395 -0.270448 -0.068679 0.034468 -0.005761 0.004340 -0.070409 -0.006847 -0.188414 -0.395210 1.017876 -0.501946 0.000030 0.068588 -0.139912 -0.100305 1.142890 0.721719 -0.623043 -0.253153 -0.021995 0.000000 0.000000 -1.016301 0.466786 1.046915 -0.192460 0.026345 -0.009536 0.526529 0.346148 1.835176 0.215400 -0.230451 0.154161 -0.076665 0.099433 -0.394020 -0.486703 -0.446156 0.033575 0.040980 0.000000 0.000000 -1.019996 -2.052720 7.793757
-0.829260 -0.218875 -2.353253 -0.149936 -1.638471 -0.084501 -0.412460 -0.013259 0.268223 -0.152749 -1.174283 0.773575 0.167511 0.079331 -1.912247 -0.017456 0.539061 0.740831 0.191234 0.008817 0.370589 -0.200397 -0.128091 -0.542530 -1.859464 -1.935527 4.832828 -1.775750 -1.923153 1.671485 0.028548 -2.091191 -1.532889 0.048241 -0.065450 -1.535211 -0.231825 -0.254884 -0.477046 -0.039765 0.296491 -0.307544 -0.442552 0.265372 0.379691 -0.032029 -1.167560 1.331857 0.182670 0.247065 -0.305808 -0.051241 0.036594 0.021323 0.080237 -0.142668 -0.008763 -0.304638 -0.636363 1.058362 -0.359456 -0.150464 0.037029 -0.137048 -0.118911 2.144395 1.012598 0.940956 -0.622175 -0.000494 0.000000 0.000000 -1.536451 0.791970 1.844052 -0.249748 -0.002375 -0.019918 0.237588 0.259518 2.204242 0.183340 -0.746324 0.307067 -0.056586 0.123275 -0.262110 0.364256 -0.202728 0.636111 0.055206 0.000000 0.000000 -0.249824 -2.003230 9.385412
-0.709929 0.041883 -1.771120 -0.729266 -1.371902 0.224238 -0.543361 0.393637 0.424382 -0.226421 -1.119713 0.551386 0.390803 0.350848 -0.888898 -0.034271 0.806539 1.088615 0.269064 0.661345 1.797225 0.270670 0.038989 -0.434431 -0.777426 -1.602023 6.425467 -1.593265 -2.318913 2.949288 0.043723 -3.531785 0.200508 0.072923 0.221872 -0.958164 -0.318145 -0.307729 -0.527302 -0.023121 0.373294 -0.360453 -0.451234 0.237615 0.454212 0.063191 -1.191231 1.158785 0.215079 0.293857 -0.120344 -0.087848 0.052562 -0.001599 0.109524 -0.086368 0.015919 0.209171 -0.594718 0.832511 0.084324 -0.107010 0.032765 -0.104109 -0.125403 3.164671 1.276267 3.036488 -0.928745 0.024173 0.000000 0.000000 -1.542895 1.618054 2.800399 -0.025335 0.051111 0.003044 0.351833 0.417734 2.618808 0.369026 -1.062605 -0.014210 -0.029324 0.145739 -0.158824 0.916264 -0.187118 0.997236 0.054495 0.000000 0.000000 1.043600 -1.560952 10.907017
-0.577526 -0.005846 -1.470717 -0.877521 -1.598447 0.411244 -0.708592 0.676615 0.550733 0.207018 -0.702163 0.940609 0.595771 0.802492 0.500182 -0.056666 0.812169 1.000548 0.278433 1.290215 2.788405 0.494308 0.090661 -0.542456 -0.319811 -2.247047 6.398455 -1.788529 -2.507942 4.401832 0.113943 -5.068367 1.225858 0.111485 0.432818 0.417383 -0.422909 -0.314910 -0.548386 -0.066269 0.450215 -0.304142 -0.354946 0.229508 0.415050 0.521233 -1.044912 1.533589 0.129262 0.471752 0.097855 -0.009956 0.066853 -0.061714 0.068550 -0.099571 0.029071 0.522127 -0.656706 1.190430 0.271382 -0.445117 -0.067402 -0.109293 -0.193058 3.147541 1.384756 3.771010 -1.067081 0.044624 0.000000 0.000000 -1.450345 1.515341 2.494357 -0.034440 0.037461 -0.007448 0.116647 0.160633 2.806187 0.658630 -1.201388 -0.222455 -0.033083 0.154898 -0.225076 0.691605 -0.599307 0.680685 0.033774 0.000000 0.000000 1.339695 -1.800735 11.185241
-0.491995 -0.137439 -0.989916 -0.794821 -1.774661 0.419173 -0.963601 0.825733 0.529406 0.114652 -0.683823 0.365982 0.637391 0.887846 0.925668 -0.175441 0.467734 0.497470 0.229734 1.671929 3.203452 0.516383 0.065802 -0.656631 0.245514 -2.909211 6.145310 -2.174856 -3.095868 5.982316 0.188377 -6.159077 2.395461 0.107768 0.412521 1.085577 -0.645341 -0.372777 -0.750185 -0.164155 0.430702 -0.409679 -0.318222 0.191984 0.210640 0.725597 -1.068613 1.686641 0.010528 0.506961 0.099633 -0.062788 0.040362 -0.150075 -0.021730 -0.151633 0.035895 0.610320 -0.778652 1.536638 0.448966 -0.821708 -0.160309 -0.117513 -0.273448 2.944799 1.483149 3.707903 -1.404204 0.051436 0.000000 0.000000 -1.770497 1.055587 1.764397 -0.113514 -0.035799 -0.039396 -0.368174 -0.199974 2.766305 0.742008 -1.471039 -0.353654 -0.023997 0.163180 -0.340175 -0.336702 -1.237859 0.235612 0.009467 0.000000 0.000000 1.607745 -2.074266 11.791069
-0.488351 -0.399692 -1.033190 -0.540040 -1.855782 0.341519 -1.235431 0.743259 0.458328 -0.116503 -0.540760 -0.100996 0.810723 0.995420 1.596171 -0.278522 0.234944 0.136119 0.199897 1.830898 3.566888 0.716271 0.105715 -0.712796 0.185818 -2.829498 6.186670 -2.528796 -3.879160 7.748044 0.261511 -6.496360 3.155814 0.096076 0.300833 1.389418 -0.855093 -0.412249 -0.899813 -0.225484 0.420926 -0.682294 -0.342985 0.155101 0.207086 0.688729 -1.086716 1.694668 0.034600 0.568623 0.306671 -0.195561 0.073455 -0.175867 -0.036811 -0.138588 0.069525 0.785852 -0.824417 2.485783 0.815045 -1.144213 -0.210636 -0.129984 -0.336568 3.182203 1.739950 3.659774 -1.507478 0.077712 0.000000 0.000000 -1.965287 0.859379 1.272074 -0.180217 -0.121644 -0.056456 -0.761457 -0.447709 2.835134 0.697842 -1.747803 -0.478180 -0.024357 0.148481 -0.573942 -2.114109 -2.014169 -0.702350 -0.031214 0.000000 0.000000 1.106280 -2.771455 12.138289
-0.702296 -0.710833 -0.850906 -0.439587 -2.055897 0.087283 -1.635540 0.658132 0.529684 0.036681 -0.090622 -0.317209 1.052536 1.141578 2.355833 -0.302545 0.166069 -0.070343 0.200304 1.910232 3.802484 0.805230 0.127354 -0.605877 -0.273497 -2.724695 6.180502 -2.869713 -4.602778 9.611003 0.333406 -6.989578 3.271457 0.057513 0.107812 1.765108 -1.058108 -0.446782 -1.013250 -0.226308 0.502055 -0.803777 -0.288681 0.140710 0.487962 0.800203 -0.997018 1.860834 0.145426 0.653157 0.612239 -0.219439 0.184831 -0.151343 0.009603 -0.154765 0.131841 1.543354 -0.838357 3.480466 1.140253 -1.592582 -0.236903 -0.127620 -0.382473 3.523263 2.052953 3.911233 -1.466702 0.122595 0.000000 0.000000 -1.595059 1.595680 1.802341 -0.143714 -0.090912 -0.039639 -0.656645 -0.492170 3.273799 1.044271 -1.696513 -0.286536 0.000983 0.168303 -0.448747 -1.199224 -1.606930 0.244337 -0.021087 0.000000 0.000000 2.746784 -2.247586 14.913862
-0.667677 -0.616798 0.226007 -0.471560 -2.230175 0.078626 -1.796722 0.616803 0.575087 0.050253 0.173002 -0.671266 1.215785 1.191875 2.821521 -0.367402 0.034530 -0.443472 0.194428 2.280773 4.441201 0.736703 0.135634 -0.552109 -0.376464 -2.696549 5.981000 -3.213428 -5.218194 11.493758 0.444566 -7.079228 2.777862 0.011341 -0.145369 1.373096 -1.278477 -0.514686 -1.125450 -0.303046 0.500651 -0.903450 -0.226744 0.093829 0.583373 0.830066 -0.987941 1.921170 0.160652 0.647193 0.818953 -0.318033 0.269498 -0.188695 -0.036035 -0.261915 0.162072 2.137627 -1.157368 4.698370 1.390900 -2.095821 -0.228412 -0.114954 -0.405687 3.688604 2.074835 3.524907 -1.786376 0.106826 0.000000 0.000000 -2.355479 1.439573 1.612249 -0.245983 -0.114070 -0.063116 -1.073225 -0.699556 3.373349 1.046634 -2.077243 -0.314629 -0.006348 0.157766 -0.574079 -2.580776 -2.152243 -0.305793 -0.047503 0.000000 0.000000 2.357995 -2.856811 15.760958
-0.621240 -0.699060 0.314604 -0.741891 -2.775666 -0.118743 -2.073919 0.520194 0.554204 -0.099629 0.354235 -0.879668 1.378015 1.240551 3.154371 -0.465009 -0.211617 -0.904465 0.188952 2.714536 5.114418 0.654972 0.157108 -0.558951 -0.512582 -2.704448 5.624766 -3.563251 -5.806263 13.227940 0.596983 -7.028380 2.498326 0.059598 -0.158259 1.657442 -1.317762 -0.475192 -0.919544 -0.335088 0.580894 -0.856820 -0.089138 0.062988 0.754633 0.945045 -0.914613 2.150156 0.225927 0.733041 1.148310 -0.393581 0.370501 -0.198988 -0.051010 -0.274022 0.207190 2.891613 -1.525864 6.456543 1.658597 -2.773798 -0.259176 -0.127979 -0.472453 3.813121 2.030067 3.319014 -2.005328 0.113212 0.000000 0.000000 -1.912965 2.737521 2.615381 -0.188049 -0.022406 -0.052269 -0.958022 -0.717579 3.743489 1.400863 -2.151485 -0.061692 0.016819 0.174603 -0.472642 -2.392726 -2.032861 0.274025 -0.044098 0.000000 0.000000 3.388924 -2.615886 18.197384
